<svg width="1316" height="310" viewBox="0 0 1316 310" fill="none" xmlns="http://www.w3.org/2000/svg">
<g opacity="0.05" clip-path="url(#clip0_169_1817)">
<path d="M1064.94 158.637C926.482 124.803 766.452 166.366 661.544 167.521C454.262 173.968 369.883 105.295 266.616 67.9548C226.086 55.1698 181.619 47.851 137.161 46.6479C92.7031 45.4448 49.6295 50.3947 11.7634 61.0583C56.5463 34.6568 163.376 20.1921 273.598 45.8273C376.486 70.2025 455.848 146.194 670.953 139.597C785.192 135.672 953.362 111.679 1064.94 158.637Z" fill="#C3D7FF"/>
<path d="M1306.71 212.123C1192.04 163.134 1064.42 118.945 926.579 111.58C828.738 106.854 657.452 114.979 566.097 126.022C636.567 99.772 797.576 76.6401 939.354 83.6074C1010.77 89.7021 1080.67 104.367 1144.14 126.57C1207.61 148.774 1263.1 177.976 1306.71 212.123Z" fill="#C3D7FF"/>
<path d="M748.478 170.316C661.896 191.912 566.241 216.451 412.103 174.192C275.646 135.275 208.337 110.135 136.801 116.893C26.8696 127.471 58.031 185 124.288 189.496C161.27 192.316 193.619 174.922 164.477 146.493C233.456 187.42 124.728 227.075 54.4736 186.184C7.50838 159.012 14.1383 113.497 88.8997 96.1023C269.884 54.8164 410.485 184.121 624.015 179.889C671.404 179.083 717.315 172.479 748.478 170.316Z" fill="#C3D7FF"/>
</g>
<defs>
<clipPath id="clip0_169_1817">
<rect width="1303.17" height="193.037" fill="white" transform="translate(1297.95 309.622) rotate(-174.869)"/>
</clipPath>
</defs>
</svg>
