<svg width="1273" height="283" viewBox="0 0 1273 283" fill="none" xmlns="http://www.w3.org/2000/svg">
<g opacity="0.05" clip-path="url(#clip0_575_98)">
<path d="M1064.94 157.83C926.482 123.996 766.452 165.56 661.544 166.715C454.262 173.162 369.883 104.488 266.616 67.1482C226.086 54.3631 181.619 47.0443 137.161 45.8412C92.7031 44.6382 49.6295 49.5881 11.7634 60.2517C56.5463 33.8502 163.376 19.3855 273.598 45.0207C376.486 69.3959 455.848 145.387 670.953 138.791C785.192 134.865 953.362 110.873 1064.94 157.83Z" fill="#C3D7FF"/>
<path d="M1306.71 211.316C1192.04 162.327 1064.42 118.139 926.579 110.773C828.738 106.047 657.452 114.173 566.097 125.215C636.567 98.9654 797.576 75.8334 939.354 82.8007C1010.77 88.8955 1080.67 103.56 1144.14 125.764C1207.61 147.967 1263.1 177.169 1306.71 211.316Z" fill="#C3D7FF"/>
<path d="M748.478 169.509C661.896 191.105 566.241 215.645 412.103 173.386C275.646 134.468 208.337 109.329 136.801 116.087C26.8696 126.664 58.031 184.193 124.288 188.689C161.27 191.509 193.619 174.115 164.477 145.687C233.456 186.614 124.728 226.269 54.4736 185.377C7.50838 158.205 14.1383 112.69 88.8997 95.2957C269.884 54.0097 410.485 183.314 624.015 179.083C671.404 178.276 717.315 171.673 748.478 169.509Z" fill="#C3D7FF"/>
</g>
<defs>
<clipPath id="clip0_575_98">
<rect width="1303.17" height="193.037" fill="white" transform="translate(1297.95 308.815) rotate(-174.869)"/>
</clipPath>
</defs>
</svg>
